<svg width="260" height="260" fill="none" xmlns="http://www.w3.org/2000/svg"><path d="M235.504 120.294a9.063 9.063 0 0 0-6.865-4.718c-4.532-.451-10.871 1.575-13.218 5.628a6.733 6.733 0 0 0 .414 7.616 7.885 7.885 0 0 0 4.666 2.447 13.51 13.51 0 0 0 2.569.244 14.82 14.82 0 0 0 12.004-6.181 4.912 4.912 0 0 0 .43-5.036Z" fill="#13C1AC"/><path d="M208.971 138.831c-.108 0-.215-.015-.318-.044a1.119 1.119 0 0 1-.741-1.383 22.338 22.338 0 0 1 6.558-10.078 22.391 22.391 0 0 1 10.837-5.228 1.12 1.12 0 0 1 .839.196 1.129 1.129 0 0 1 .438 1.17 1.096 1.096 0 0 1-.182.399 1.12 1.12 0 0 1-.732.453 20.104 20.104 0 0 0-9.737 4.697 20.056 20.056 0 0 0-5.888 9.057 1.116 1.116 0 0 1-1.074.761Z" fill="#04413C"/><path d="M255.295 234.219c-.555-8.57-2.791-17.096-4.591-23.951-.822-3.157-1.54-5.878-2.007-8.229-3.317-16.756-7.131-35.198-10.367-41.956-2.6-5.42-5.288-11.025-9.561-15.528-7.183-7.617-16.121-12.105-25.178-12.623a47.406 47.406 0 0 0-14.359 1.161c-6.494 1.767-12.189 6.492-15.625 12.97-3.51 6.655-3.814 14.049-4.103 21.163l-.044 1.035c-.133 3.202-.126 7.217-.089 11.543a109.894 109.894 0 0 0-11.041-2.448c-2.326-.311-4.784-.466-7.006.488-2.355 1.013-4.376 3.697-3.665 6.441.466 1.804 1.94 3.031 3.014 3.926l18.609 15.573c-.444 9.671-2.318 16.711-3.976 22.922-.608 2.27-1.178 4.437-1.652 6.566a10.482 10.482 0 0 0 2.065 8.85 10.51 10.51 0 0 0 8.206 3.928h70.314a10.985 10.985 0 0 0 8.065-3.49 11.193 11.193 0 0 0 2.991-8.341Z" fill="#13C1AC"/><path opacity=".2" d="M255.296 234.219c-.556-8.57-2.785-17.089-4.584-23.943l-.422-1.597a1.1 1.1 0 0 0-1.033-.858 1.092 1.092 0 0 0-.463.081 111.85 111.85 0 0 0-10.501 5.176c-1.222.651-2.436 1.309-3.658 1.945-16.951 8.822-33.176 12.881-48.239 12.06a107.262 107.262 0 0 1-19.254-3.165 1.105 1.105 0 0 0-1.333.799l-.511 1.915c-.614 2.292-1.192 4.437-1.666 6.655a10.491 10.491 0 0 0 5.74 11.739 10.518 10.518 0 0 0 4.554 1.024h70.313a10.985 10.985 0 0 0 8.065-3.49 11.178 11.178 0 0 0 2.357-3.863c.515-1.434.731-2.958.635-4.478Z" fill="#04413C"/><path fill-rule="evenodd" clip-rule="evenodd" d="M183.75 156.579a3.478 3.478 0 0 0-4.164-3.401 3.483 3.483 0 0 0-2.731 2.733 3.474 3.474 0 0 0 3.414 4.15 3.488 3.488 0 0 0 2.464-1.02 3.483 3.483 0 0 0 1.017-2.462Zm36.452-.001a3.482 3.482 0 0 0-2.153-3.218 3.491 3.491 0 0 0-4.756 2.539 3.484 3.484 0 0 0 3.421 4.162 3.49 3.49 0 0 0 2.466-1.02 3.481 3.481 0 0 0 1.022-2.463Z" fill="#04413C"/><path d="M207.743 155.483h-19.632a1.11 1.11 0 0 0-1.103 1.095v5.264a10.908 10.908 0 0 0 3.299 7.534 10.942 10.942 0 0 0 15.255 0 10.908 10.908 0 0 0 3.299-7.534v-5.264a1.112 1.112 0 0 0-1.118-1.095Zm-9.82 15.063a8.58 8.58 0 0 1-5.835-2.263 9.736 9.736 0 0 1 8.746-5.561 9.568 9.568 0 0 1 5.413 1.664 8.74 8.74 0 0 1-3.151 4.442 8.772 8.772 0 0 1-5.173 1.718Z" fill="#04413C"/><path d="M99.629 204.242c-2.925-15.461-7.598-30.738-12.123-45.52l-.74-2.492c-3.43-11.15-7.872-21.976-17.307-25.695-9.316-3.668-15.744-2.795-22.653-1.383-8.146 1.679-13.426 5.176-16.565 10.959-3.34 6.152-5.517 19.343-5.184 31.367.326 11.72-.837 25.141-2.577 29.851-1.237 3.313-4.051 7.816-6.532 11.764-1.259 1.997-2.444 3.875-3.295 5.413-2.422 4.37-4.747 11.476-3.318 17.14 1.274 5.036 3.333 10.404 11.708 10.404h63.16c13.774 0 15.87-10.441 16.766-14.9 1.237-6.137.755-15.942-1.34-26.908Z" fill="#FF89C2"/><path opacity=".2" d="M100.991 228a1.085 1.085 0 0 0-.933-.303 135.17 135.17 0 0 1-23.616 1.301 44.556 44.556 0 0 1-8.886-1.005 52.117 52.117 0 0 1-9.145-3.461 1192.73 1192.73 0 0 1-16.092-7.394l-.497-.229c-5.716-2.64-11.626-5.376-17.817-7.106-1.48-.415-3.021-.74-4.517-1.05a1.104 1.104 0 0 0-1.155.517c-.815 1.287-1.644 2.588-2.385 3.816-1.251 1.996-2.444 3.882-3.295 5.42-2.422 4.37-4.747 11.476-3.318 17.14 1.274 5.035 3.333 10.404 11.708 10.404h63.16c13.774 0 15.87-10.441 16.766-14.9.133-.651.244-1.375.348-2.218a1.083 1.083 0 0 0-.326-.932Z" fill="#670A6F"/><path fill-rule="evenodd" clip-rule="evenodd" d="M47.358 156.725a3.236 3.236 0 0 0-2.364-2.715 3.252 3.252 0 0 0-3.417 1.14 3.236 3.236 0 0 0 1.111 4.881 3.25 3.25 0 0 0 4.018-.909 3.233 3.233 0 0 0 .652-2.397Zm33.655-4.244a3.235 3.235 0 0 0-2.366-2.714 3.245 3.245 0 0 0-4.087 2.9 3.236 3.236 0 0 0 1.79 3.124c.574.285 1.22.395 1.856.313a3.233 3.233 0 0 0 2.723-2.36 3.22 3.22 0 0 0 .084-1.263Z" fill="#670A6F"/><path d="M60.776 164.963a7.155 7.155 0 0 1-7.057-6.255l-.415-3.224a1.117 1.117 0 0 1 1.396-1.213 1.118 1.118 0 0 1 .81.932l.409 3.224a4.939 4.939 0 0 0 3.583 4.274 4.96 4.96 0 0 0 5.29-1.781 4.938 4.938 0 0 0 .939-3.728l-.415-3.224a1.116 1.116 0 0 1 1.397-1.212 1.118 1.118 0 0 1 .674.525c.072.127.118.268.136.413l.407 3.217a7.14 7.14 0 0 1-1.447 5.283 7.162 7.162 0 0 1-4.766 2.71c-.312.04-.626.059-.94.059Z" fill="#670A6F"/><path d="m46.011 162.197-2.421.303a3.118 3.118 0 0 0-1.728 5.351 3.13 3.13 0 0 0 2.113.861c.13.007.262.007.392 0l2.43-.304a3.112 3.112 0 0 0 1.519-5.553 3.124 3.124 0 0 0-2.305-.628v-.03Zm37.145-1.545a3.099 3.099 0 0 0-1.179-2.072 3.124 3.124 0 0 0-2.302-.627l-2.428.303a3.119 3.119 0 0 0-2.703 3.483 3.127 3.127 0 0 0 3.088 2.728c.133.007.267.007.4 0l2.422-.303a3.125 3.125 0 0 0 2.702-3.483v-.029Z" fill="#FFCEE6"/><path d="M115.321 199.931a3.268 3.268 0 0 0-2.925-2.018 8.48 8.48 0 0 0-4.133.865l-14.877 5.989a1.13 1.13 0 0 0-.62.61 1.117 1.117 0 0 0 .005.869 1.088 1.088 0 0 0 .919.68l-1.681 16.564-.83.636a1.11 1.11 0 0 0-.376 1.235 1.11 1.11 0 0 0 1.724.525c.074-.06 7.583-5.805 11.249-8.785.518-.421 1.051-.835 1.577-1.257a41.525 41.525 0 0 0 6.428-5.915c.052-.052 4.999-6.374 3.54-9.998Z" fill="#FF89C2"/><path d="M101.451 217.951a1.112 1.112 0 0 1-1.096-.954 511.09 511.09 0 0 0-1.311-8.918c-.311-2.011-.637-4.126-.97-6.307l-.274-1.797a1.119 1.119 0 0 1 .532-1.127 1.127 1.127 0 0 1 .85-.128 1.124 1.124 0 0 1 .839.922l.274 1.797c.334 2.174.659 4.289.97 6.3.467 2.958.919 6.041 1.319 8.955a1.113 1.113 0 0 1-.538 1.109 1.086 1.086 0 0 1-.41.14l-.185.008Z" fill="#670A6F"/><path d="m138.48 195.871-8.487-36.143a3.873 3.873 0 0 0-1.729-2.408 3.887 3.887 0 0 0-2.929-.484l-52.926 12.371a3.89 3.89 0 0 0-2.412 1.732 3.877 3.877 0 0 0-.483 2.927l8.472 36.144a3.883 3.883 0 0 0 3.776 2.957c.297.002.593-.033.882-.103l52.933-12.371a3.878 3.878 0 0 0 2.412-1.726c.269-.432.449-.913.53-1.415a3.84 3.84 0 0 0-.054-1.51l.015.029Z" fill="#F49709"/><path opacity=".3" d="m138.482 195.871-8.486-36.144a3.82 3.82 0 0 0-1.726-2.41 3.925 3.925 0 0 0-2.962-.481l-18.958 4.437a1.116 1.116 0 0 0-.829 1.331l9.731 41.527a1.106 1.106 0 0 0 1.081.85c.086.011.173.011.259 0l18.958-4.437a3.854 3.854 0 0 0 2.412-1.726 3.849 3.849 0 0 0 .476-2.925l.044-.022Z" fill="#803700"/><path d="M116.373 204.982a1.116 1.116 0 0 1-1.082-.851l-9.738-41.527a1.104 1.104 0 0 1 .158-.815 1.115 1.115 0 0 1 1.503-.35c.247.148.427.385.502.663l9.738 41.519c.066.286.016.587-.139.837a1.115 1.115 0 0 1-.942.524Z" fill="#803700"/><path d="m63.003 202.114 22.216-3.697c2.17-.355 4.762-.569 6.19 1.102a4.287 4.287 0 0 1 .571 4.082 11.505 11.505 0 0 1-2.266 3.63 83.008 83.008 0 0 1-16.292 14.981" fill="#FF89C2"/><path d="M73.428 223.358a1.093 1.093 0 0 1-.904-.473 1.107 1.107 0 0 1-.19-.828 1.102 1.102 0 0 1 .457-.717 81.703 81.703 0 0 0 16.062-14.789 10.404 10.404 0 0 0 2.074-3.269 3.21 3.21 0 0 0-.363-3.009c-1.044-1.22-3.2-1.05-5.184-.739l-22.216 3.66a1.138 1.138 0 0 1-.839-.197 1.118 1.118 0 0 1-.453-.731 1.125 1.125 0 0 1 .93-1.291l22.215-3.66c2.577-.421 5.458-.577 7.213 1.479a5.382 5.382 0 0 1 .785 5.176 12.437 12.437 0 0 1-2.473 3.986 83.955 83.955 0 0 1-16.477 15.173c-.184.14-.406.22-.637.229Z" fill="#670A6F"/><path d="M191.709 207.88c-.169 0-.336-.038-.489-.111a86.022 86.022 0 0 1-14.07-8.636 12.42 12.42 0 0 1-3.199-3.173 5.318 5.318 0 0 1-.511-4.991c1.185-2.521 4.177-3.039 6.665-3.216 9.249-.651 18.639-.88 27.911-.688a1.117 1.117 0 0 1 1.012.705 1.111 1.111 0 0 1-1.057 1.513 306.529 306.529 0 0 0-27.71.681c-1.874.133-4.11.473-4.806 1.952a3.16 3.16 0 0 0 .385 2.869 10.398 10.398 0 0 0 2.658 2.58 83.682 83.682 0 0 0 13.7 8.408 1.107 1.107 0 0 1-.489 2.107Z" fill="#04413C"/><path d="M110.647 96.994a1.112 1.112 0 0 1-1.111-1.109v-1.716a1.11 1.11 0 0 1 2.221 0v1.716a1.11 1.11 0 0 1-1.11 1.11Zm5.445 4.001h-1.718a1.112 1.112 0 0 1-1.111-1.11 1.11 1.11 0 0 1 1.111-1.109h1.718a1.111 1.111 0 0 1 1.11 1.11 1.11 1.11 0 0 1-1.11 1.109Zm-5.729 5.435a1.114 1.114 0 0 1-1.111-1.11v-1.715a1.109 1.109 0 0 1 1.896-.784c.209.208.326.49.326.784v1.715a1.111 1.111 0 0 1-1.111 1.11Zm-3.723-5.724h-1.718a1.111 1.111 0 0 1-1.111-1.11 1.111 1.111 0 0 1 1.111-1.11h1.718a1.113 1.113 0 0 1 1.111 1.11 1.109 1.109 0 0 1-1.111 1.11Zm38.991 43.02c-.295 0-.577-.116-.785-.325a1.106 1.106 0 0 1-.326-.784v-1.375a1.11 1.11 0 0 1 2.222 0v1.375c0 .294-.117.576-.326.784-.208.209-.49.325-.785.325Zm4.354 3.239h-1.378a1.11 1.11 0 0 1-1.111-1.109 1.111 1.111 0 0 1 1.111-1.109h1.378a1.111 1.111 0 0 1 .785 1.894 1.11 1.11 0 0 1-.785.324Zm-4.582 4.311a1.114 1.114 0 0 1-1.111-1.109v-1.368a1.109 1.109 0 0 1 1.896-.784c.209.208.326.49.326.784v1.368a1.11 1.11 0 0 1-1.111 1.109Zm-2.978-4.578h-1.378a1.11 1.11 0 0 1-1.111-1.109 1.111 1.111 0 0 1 1.111-1.109h1.378a1.111 1.111 0 0 1 .785 1.894 1.11 1.11 0 0 1-.785.324Zm18.332-33.556a1.115 1.115 0 0 1-1.028-1.534c.056-.135.139-.257.243-.359l1.407-1.405a1.111 1.111 0 0 1 1.868.792c.005.287-.102.565-.298.775l-1.407 1.405a1.118 1.118 0 0 1-.785.326Zm1.167 7.727a1.13 1.13 0 0 1-.785-.325l-1.407-1.405a1.118 1.118 0 0 1 0-1.568 1.114 1.114 0 0 1 .785-.327 1.104 1.104 0 0 1 .785.327l1.407 1.405a1.112 1.112 0 0 1-.785 1.893Zm-9.145-.236a1.136 1.136 0 0 1-.785-.326 1.116 1.116 0 0 1 0-1.567l1.407-1.405a1.109 1.109 0 0 1 1.212-.244 1.111 1.111 0 0 1 .365 1.811l-1.414 1.442a1.11 1.11 0 0 1-.785.289Zm1.652-7.728a1.092 1.092 0 0 1-.785-.325l-1.437-1.405a1.109 1.109 0 0 1 .794-1.865 1.11 1.11 0 0 1 .776.297l1.407 1.405a1.107 1.107 0 0 1 .328.784 1.108 1.108 0 0 1-.328.784 1.07 1.07 0 0 1-.755.325Zm-27.022 25.927a1.1 1.1 0 0 1-1.119-.961c-.177-1.716-.74-4.437-1.481-5.176-.74-.74-3.458-1.287-5.183-1.479a1.112 1.112 0 0 1-1.111-1.109 1.11 1.11 0 0 1 1.111-1.11c1.725-.177 4.443-.739 5.183-1.478.741-.74 1.289-3.461 1.481-5.177a1.111 1.111 0 0 1 2.222 0c.178 1.716.741 4.437 1.481 5.177.741.739 3.458 1.286 5.184 1.478a1.111 1.111 0 0 1 .785 1.894 1.111 1.111 0 0 1-.785.325c-1.718.17-4.443.739-5.184 1.479-.74.739-1.296 3.505-1.481 5.176a1.114 1.114 0 0 1-1.103.991v-.03Zm-2.6-8.703a4.07 4.07 0 0 1 2.637 2.632c.224-.603.56-1.157.992-1.634a5.177 5.177 0 0 1 1.637-.998 4.023 4.023 0 0 1-2.629-2.625 5.187 5.187 0 0 1-1 1.634 4.965 4.965 0 0 1-1.637.991Zm23.695-26.244a1.106 1.106 0 0 1-1.103-.99c-.23-2.219-1-6.19-2.111-7.299-1.11-1.109-5.072-1.878-7.301-2.107a1.113 1.113 0 0 1-1.111-1.11 1.11 1.11 0 0 1 1.111-1.108c2.221-.23 6.191-.999 7.301-2.108 1.111-1.109 1.881-5.05 2.111-7.268a1.102 1.102 0 0 1 1.103-1.006 1.112 1.112 0 0 1 1.104 1.006c.229 2.218 1.007 6.189 2.11 7.29 1.104 1.102 5.073 1.879 7.302 2.108a1.11 1.11 0 1 1 0 2.218c-2.222.23-6.191 1.006-7.302 2.108-1.111 1.101-1.881 5.065-2.11 7.298a1.111 1.111 0 0 1-1.104.968Zm-4.776-11.498a8.145 8.145 0 0 1 3.132 1.642 8.027 8.027 0 0 1 1.644 3.135 8.04 8.04 0 0 1 1.644-3.135 8.079 8.079 0 0 1 3.133-1.642 7.982 7.982 0 0 1-3.133-1.62 8.008 8.008 0 0 1-1.644-3.15 7.995 7.995 0 0 1-1.644 3.15 7.979 7.979 0 0 1-3.132 1.62Zm111.044 155.142H6.693a1.11 1.11 0 0 1-1.11-1.109 1.108 1.108 0 0 1 1.11-1.109h248.079a1.11 1.11 0 1 1 0 2.218Z" fill="#CFD8DC"/><path d="M56.807 126.624a13.319 13.319 0 0 0-6.403-7.204 13.35 13.35 0 0 0-9.592-1.004l-.689-1.864 7.99-.924a3.385 3.385 0 0 0 2.493-1.587 3.38 3.38 0 0 0 .292-2.938 3.317 3.317 0 0 0-2.126-2.048 3.37 3.37 0 0 0-2.962.399l-7.642 5.095-9.094 1.057a3.388 3.388 0 0 0-2.95 3.029 3.373 3.373 0 0 0 .195 1.496 3.317 3.317 0 0 0 2.126 2.049 3.378 3.378 0 0 0 2.933-.4l6.664-4.436.689 1.863a13.32 13.32 0 0 0-6.66 6.97 13.29 13.29 0 0 0-.205 9.63 1.106 1.106 0 0 0 1.422.673l11.434-4.2 4.865-1.782 6.569-2.41a1.118 1.118 0 0 0 .659-1.427l-.008-.037Zm-15.166 4.385-1.481.547c-1.918-5.916-1.14-10.175.37-10.73a1.27 1.27 0 0 1 .415-.066c1.651 0 4.658 2.758 6.82 8.008l-6.124 2.241Zm5.413-19.707a1.158 1.158 0 0 1 1.748.599 1.192 1.192 0 0 1-.104 1.013 1.178 1.178 0 0 1-.859.548l-4.806.554 4.021-2.714Zm-16.943 8.63a1.16 1.16 0 0 1-1.007.14 1.159 1.159 0 0 1-.27-2.086c.149-.095.317-.155.492-.176l4.806-.555-4.021 2.677Zm6.85 3.031c-.422 2.478-.074 5.783 1.103 9.362l-4.443 1.634a11.075 11.075 0 0 1 3.34-10.996Zm12.87 5.036c-1.421-3.475-3.295-6.219-5.183-7.838 2.026.056 3.998.664 5.703 1.759a11.096 11.096 0 0 1 3.968 4.452l-4.488 1.627Z" fill="#670A6F"/></svg>